<?xml version="1.0" encoding="UTF-8"?>
<svg id="_圖層_1" data-name="圖層 1" xmlns="http://www.w3.org/2000/svg" viewBox="0 0 743.44 216.64">
  <defs>
    <style>
      .cls-1 {
        fill: #fff;
      }

      .cls-2 {
        fill: #fff5e0;
      }

      .cls-3 {
        fill: none;
      }

      .cls-4 {
        fill: #f0cdca;
      }

      .cls-5 {
        fill: #231815;
      }

      .cls-6 {
        fill: #fad7c5;
      }
    </style>
  </defs>
  <g>
    <g>
      <path class="cls-5" d="m222.44,185.83c0,1.81-.43,3.4-1.28,4.76s-2,2.47-3.45,3.31c-1.32.77-2.84,1.36-4.55,1.75s-3.6.59-5.68.59c-1.13,0-2.3-.03-3.5-.11-1.21-.07-1.91-.11-2.1-.13l-.21-3.8c.25.03.93.1,2.06.2,1.13.1,2.45.14,3.99.14.93,0,2.14-.12,3.62-.37,1.48-.25,2.61-.56,3.4-.95,1.04-.51,1.83-1.13,2.39-1.85.55-.72.83-1.64.83-2.74,0-1.18-.28-2.18-.83-3-.55-.82-1.47-1.61-2.76-2.36-.83-.49-1.9-1.05-3.22-1.66-1.32-.62-2.51-1.25-3.56-1.9-1.79-1.09-3.08-2.28-3.84-3.58-.77-1.29-1.15-2.73-1.15-4.32s.35-3.02,1.04-4.21,1.6-2.2,2.71-3.05c1.13-.84,2.51-1.48,4.14-1.9s3.44-.63,5.43-.63c1.09,0,2.2.03,3.32.09s1.76.1,1.92.12l.37,3.83c-.16-.02-.8-.08-1.93-.19-1.13-.11-2.52-.16-4.17-.16-.99,0-2,.11-3.05.33-1.05.22-1.97.56-2.76,1.02-.7.4-1.3.97-1.79,1.69-.49.72-.74,1.57-.74,2.53,0,.86.26,1.69.78,2.49.52.8,1.49,1.62,2.92,2.47.72.44,1.68.95,2.86,1.52,1.19.57,2.35,1.19,3.5,1.86,1.76,1.04,3.08,2.23,3.97,3.58.89,1.35,1.33,2.88,1.33,4.61Z"/>
      <path class="cls-5" d="m263.36,195.78h-4.17c.02-.53.04-2.12.07-4.76.03-2.65.04-4.39.04-5.24,0-.92,0-2.27-.01-4.05s-.02-3.09-.04-3.92c-.05-2.02-.44-3.47-1.16-4.36-.72-.88-1.97-1.32-3.75-1.32-1,0-2.29.3-3.85.9-1.57.6-3.22,1.42-4.96,2.45l.11,20.3h-4.17c.02-.69.04-3.45.07-8.3.03-4.85.04-8.84.04-11.97,0-2.04,0-4.61-.01-7.72s-.04-6.67-.09-10.7h4.17l-.11,15.02.03.03c2.52-1.41,4.57-2.38,6.18-2.93,1.6-.55,2.97-.82,4.12-.82,2.25,0,4.06.71,5.42,2.12,1.36,1.42,2.05,3.36,2.05,5.82,0,2.22-.01,4.13-.04,5.74-.03,1.61-.04,2.92-.04,3.92,0,1.6.02,3.44.05,5.52.03,2.08.06,3.5.08,4.28Z"/>
      <path class="cls-5" d="m304.26,181.45h-19.08c.02,1.86.41,3.58,1.19,5.13.77,1.56,1.96,2.85,3.56,3.87,1.02.65,2.18,1.14,3.48,1.47,1.3.33,2.87.49,4.7.49,1,0,1.92-.03,2.76-.08s1.35-.09,1.54-.11l-.48,3.51c-.14.02-.61.05-1.4.09s-1.72.07-2.8.07c-2.82,0-5.27-.36-7.35-1.1-2.09-.73-3.8-1.74-5.13-3.02-1.14-1.07-2.12-2.45-2.92-4.12-.8-1.67-1.2-3.53-1.2-5.57s.3-3.82.9-5.44c.6-1.62,1.5-3.12,2.69-4.51,1.04-1.2,2.33-2.12,3.87-2.77,1.54-.65,3.14-.98,4.79-.98s3.09.25,4.35.74c1.27.49,2.37,1.24,3.3,2.24,1.04,1.13,1.83,2.51,2.38,4.16.55,1.65.83,3.62.84,5.93Zm-4.09-2.96c-.28-2.18-1.03-3.89-2.23-5.13-1.21-1.24-2.79-1.86-4.76-1.86s-3.62.63-4.94,1.89-2.23,2.96-2.74,5.11h14.67Z"/>
      <path class="cls-5" d="m342.63,181.45h-19.08c.02,1.86.41,3.58,1.19,5.13.77,1.56,1.96,2.85,3.56,3.87,1.02.65,2.18,1.14,3.48,1.47,1.3.33,2.87.49,4.7.49,1,0,1.92-.03,2.76-.08s1.35-.09,1.54-.11l-.48,3.51c-.14.02-.61.05-1.4.09s-1.72.07-2.8.07c-2.82,0-5.27-.36-7.35-1.1-2.09-.73-3.8-1.74-5.13-3.02-1.14-1.07-2.12-2.45-2.92-4.12-.8-1.67-1.2-3.53-1.2-5.57s.3-3.82.9-5.44c.6-1.62,1.5-3.12,2.69-4.51,1.04-1.2,2.33-2.12,3.87-2.77,1.54-.65,3.14-.98,4.79-.98s3.09.25,4.35.74c1.27.49,2.37,1.24,3.3,2.24,1.04,1.13,1.83,2.51,2.38,4.16.55,1.65.83,3.62.84,5.93Zm-4.09-2.96c-.28-2.18-1.03-3.89-2.23-5.13-1.21-1.24-2.79-1.86-4.76-1.86s-3.62.63-4.94,1.89-2.23,2.96-2.74,5.11h14.67Z"/>
      <path class="cls-5" d="m383.26,181.61c0,2.73-.61,5.05-1.82,6.95-1.21,1.91-2.85,3.42-4.91,4.53-1.79.95-3.77,1.62-5.91,2.01-2.15.39-4.19.58-6.12.58l.11,12.12h-4.2c.02-.3.04-2.73.07-7.3.03-4.57.04-9.15.04-13.74,0-2.3,0-4.98-.03-8.04-.02-3.05-.04-6.34-.08-9.86.56-.02,1.12-.03,1.68-.03h1.28c3.7,0,6.56.19,8.6.58,2.04.39,3.9,1.07,5.57,2.06,1.78,1.04,3.18,2.42,4.2,4.16,1.02,1.73,1.53,3.73,1.53,5.98Zm-4.22.15c0-1.72-.4-3.23-1.21-4.53-.81-1.3-1.87-2.33-3.17-3.08-1.18-.67-2.52-1.16-4.03-1.46-1.5-.31-3.14-.46-4.9-.46h-1.19c0,.3-.01,1.34-.04,3.12-.03,1.78-.04,4.86-.04,9.24,0,.91,0,2.2.01,3.85,0,1.65.01,2.97.01,3.95,1.65,0,3.31-.15,4.96-.46,1.65-.31,3.02-.73,4.09-1.25,1.79-.88,3.16-2.05,4.09-3.5.93-1.46,1.4-3.26,1.4-5.4Z"/>
      <path class="cls-5" d="m448.38,181.61c0,2.73-.61,5.05-1.82,6.95-1.21,1.91-2.85,3.42-4.91,4.53-1.79.95-3.77,1.62-5.91,2.01-2.15.39-4.19.58-6.12.58l.11,12.12h-4.2c.02-.3.04-2.73.07-7.3.03-4.57.04-9.15.04-13.74,0-2.3,0-4.98-.03-8.04-.02-3.05-.04-6.34-.08-9.86.56-.02,1.12-.03,1.68-.03h1.28c3.7,0,6.56.19,8.6.58,2.04.39,3.9,1.07,5.57,2.06,1.78,1.04,3.18,2.42,4.2,4.16,1.02,1.73,1.53,3.73,1.53,5.98Zm-4.22.15c0-1.72-.4-3.23-1.21-4.53-.81-1.3-1.87-2.33-3.17-3.08-1.18-.67-2.52-1.16-4.03-1.46-1.5-.31-3.14-.46-4.9-.46h-1.19c0,.3-.01,1.34-.04,3.12-.03,1.78-.04,4.86-.04,9.24,0,.91,0,2.2.01,3.85,0,1.65.01,2.97.01,3.95,1.65,0,3.31-.15,4.96-.46,1.65-.31,3.02-.73,4.09-1.25,1.79-.88,3.16-2.05,4.09-3.5.93-1.46,1.4-3.26,1.4-5.4Z"/>
      <path class="cls-5" d="m484.66,180.74c0,4.36,0,7.92-.03,10.66-.02,2.74-.03,4.22-.03,4.43-.18.02-.99.08-2.45.2-1.46.11-3.34.17-5.65.17-1.44,0-2.89-.13-4.35-.4-1.46-.26-2.72-.64-3.77-1.14-1.41-.65-2.55-1.54-3.42-2.67-.87-1.13-1.31-2.48-1.31-4.06,0-1.67.51-3.12,1.54-4.34,1.03-1.22,2.46-2.21,4.29-2.97,1.14-.48,2.67-.9,4.58-1.28s4.09-.66,6.53-.86c-.11-1.37-.45-2.5-1.03-3.38-.58-.88-1.43-1.55-2.56-2.01-.77-.32-1.64-.54-2.59-.67s-2.06-.2-3.33-.2c-.79,0-1.47.02-2.02.05-.55.04-1.31.08-2.26.13l.42-3.51c.26-.02.79-.05,1.57-.09.78-.04,1.85-.07,3.21-.07,2.08,0,3.93.22,5.56.65,1.63.43,2.98,1.13,4.05,2.1,1,.92,1.76,2.05,2.27,3.39.51,1.35.77,3.3.77,5.85Zm-4.04,6.36v-2.27c0-.92,0-1.97-.03-3.17-.77.03-2.13.19-4.06.46-1.94.27-3.56.66-4.88,1.17-.99.37-1.86.92-2.63,1.66-.77.74-1.15,1.65-1.15,2.74,0,1.2.33,2.16.98,2.89.65.73,1.54,1.29,2.67,1.68.86.3,1.82.51,2.86.65,1.05.13,2.15.2,3.31.2.35,0,.78,0,1.29-.03.51-.02,1.05-.03,1.61-.05,0-.12,0-.7.01-1.74,0-1.04.01-2.44.01-4.2Z"/>
      <path class="cls-5" d="m519.41,192.51l-.48,3.35c-.12.02-.43.03-.91.05-.48.02-.9.03-1.25.03-3.61,0-6.33-.75-8.18-2.26s-2.77-3.81-2.77-6.93c0-1.95.01-4.05.04-6.28.03-2.23.04-5.01.04-8.31h-4.43v-3.09h4.67v-6.25h3.83v6.25h9.45v3.09h-9.45c0,.37-.01,1.47-.04,3.3-.03,1.83-.04,3.19-.04,4.06v6.55c0,2.29.62,3.94,1.85,4.95,1.23,1.01,3.13,1.52,5.7,1.52.32,0,.69,0,1.13-.01.44,0,.72-.01.84-.01Z"/>
      <path class="cls-5" d="m541.6,163.95h-4.65v-4.54h4.65v4.54Zm-.24,31.83h-4.17c.02-.28.04-2.01.07-5.2.03-3.19.04-5.82.04-7.89,0-1.81,0-3.8-.01-5.98,0-2.17-.04-4.72-.09-7.64h4.17c-.04,2.53-.07,4.91-.09,7.11-.03,2.21-.04,4.17-.04,5.9,0,4.1.02,7.39.07,9.87.04,2.48.07,3.76.07,3.83Z"/>
      <path class="cls-5" d="m576.64,188.05c0,1.3-.32,2.46-.95,3.48-.63,1.02-1.46,1.85-2.48,2.48-1.08.67-2.35,1.17-3.82,1.52-1.47.34-3.1.51-4.88.51-.86,0-1.76-.04-2.68-.12-.93-.08-1.45-.13-1.57-.15l-.16-3.46c.16.02.77.07,1.83.14s2.12.12,3.18.12c.62,0,1.41-.05,2.38-.16.97-.11,1.77-.3,2.4-.58.88-.39,1.53-.86,1.95-1.43.42-.56.63-1.24.63-2.03,0-.72-.18-1.31-.55-1.75s-.88-.88-1.53-1.31c-.7-.48-1.67-.98-2.89-1.52-1.22-.54-2.25-1.05-3.08-1.54-1.18-.72-2.08-1.57-2.71-2.56-.62-.99-.94-2.13-.94-3.43s.36-2.47,1.07-3.51c.71-1.04,1.67-1.87,2.87-2.51,1.04-.56,2.19-.94,3.45-1.12,1.26-.18,2.48-.28,3.66-.28,1.07,0,1.96.02,2.64.05.69.04,1.08.05,1.19.05l.29,3.51c-.12,0-.67-.04-1.63-.11-.96-.07-2.01-.11-3.16-.11-.81,0-1.58.07-2.31.21-.73.14-1.35.34-1.87.61-.76.39-1.3.85-1.63,1.4-.33.55-.49,1.07-.49,1.58,0,.7.23,1.31.69,1.82.46.51,1,.94,1.61,1.29.72.42,1.71.92,2.96,1.5s2.16,1.05,2.72,1.4c1.23.77,2.17,1.64,2.82,2.59.64.95.97,2.08.97,3.38Z"/>
      <path class="cls-5" d="m609.43,188.05c0,1.3-.32,2.46-.95,3.48-.63,1.02-1.46,1.85-2.48,2.48-1.08.67-2.35,1.17-3.82,1.52-1.47.34-3.1.51-4.88.51-.86,0-1.76-.04-2.68-.12-.93-.08-1.45-.13-1.57-.15l-.16-3.46c.16.02.77.07,1.83.14s2.12.12,3.18.12c.62,0,1.41-.05,2.38-.16.97-.11,1.77-.3,2.4-.58.88-.39,1.53-.86,1.95-1.43.42-.56.63-1.24.63-2.03,0-.72-.18-1.31-.55-1.75s-.88-.88-1.53-1.31c-.7-.48-1.67-.98-2.89-1.52-1.22-.54-2.25-1.05-3.08-1.54-1.18-.72-2.08-1.57-2.71-2.56-.62-.99-.94-2.13-.94-3.43s.36-2.47,1.07-3.51c.71-1.04,1.67-1.87,2.87-2.51,1.04-.56,2.19-.94,3.45-1.12,1.26-.18,2.48-.28,3.66-.28,1.07,0,1.96.02,2.64.05.69.04,1.08.05,1.19.05l.29,3.51c-.12,0-.67-.04-1.63-.11-.96-.07-2.01-.11-3.16-.11-.81,0-1.58.07-2.31.21-.73.14-1.35.34-1.87.61-.76.39-1.3.85-1.63,1.4-.33.55-.49,1.07-.49,1.58,0,.7.23,1.31.69,1.82.46.51,1,.94,1.61,1.29.72.42,1.71.92,2.96,1.5s2.16,1.05,2.72,1.4c1.23.77,2.17,1.64,2.82,2.59.64.95.97,2.08.97,3.38Z"/>
      <path class="cls-5" d="m648.27,181.45h-19.08c.02,1.86.41,3.58,1.19,5.13.77,1.56,1.96,2.85,3.56,3.87,1.02.65,2.18,1.14,3.48,1.47,1.3.33,2.87.49,4.7.49,1,0,1.92-.03,2.76-.08s1.35-.09,1.54-.11l-.48,3.51c-.14.02-.61.05-1.4.09s-1.72.07-2.8.07c-2.82,0-5.27-.36-7.35-1.1-2.09-.73-3.8-1.74-5.13-3.02-1.14-1.07-2.12-2.45-2.92-4.12-.8-1.67-1.2-3.53-1.2-5.57s.3-3.82.9-5.44c.6-1.62,1.5-3.12,2.69-4.51,1.04-1.2,2.33-2.12,3.87-2.77,1.54-.65,3.14-.98,4.79-.98s3.09.25,4.35.74c1.27.49,2.37,1.24,3.3,2.24,1.04,1.13,1.83,2.51,2.38,4.16.55,1.65.83,3.62.84,5.93Zm-4.09-2.96c-.28-2.18-1.03-3.89-2.23-5.13-1.21-1.24-2.79-1.86-4.76-1.86s-3.62.63-4.94,1.89-2.23,2.96-2.74,5.11h14.67Z"/>
      <path class="cls-5" d="m681.49,172.18c-.97.23-2.45.71-4.45,1.45-2,.74-4.3,1.72-6.9,2.96,0,.19,0,1.08-.03,2.65-.02,1.57-.03,3.04-.03,4.39,0,2.08.02,4.54.07,7.39.04,2.85.07,4.43.07,4.75h-4.17c0-.3.02-1.28.05-2.96.03-1.67.05-4.53.05-8.58,0-1.64,0-3.92-.03-6.86-.02-2.94-.04-5.71-.08-8.31h4.09v4.01l.03.03c1.99-1.13,3.95-2.1,5.89-2.93,1.94-.83,3.48-1.39,4.65-1.69l.79,3.7Z"/>
      <path class="cls-5" d="m702.36,163.95h-4.65v-4.54h4.65v4.54Zm-.24,31.83h-4.17c.02-.28.04-2.01.07-5.2.03-3.19.04-5.82.04-7.89,0-1.81,0-3.8-.01-5.98,0-2.17-.04-4.72-.09-7.64h4.17c-.04,2.53-.07,4.91-.09,7.11-.03,2.21-.04,4.17-.04,5.9,0,4.1.02,7.39.07,9.87.04,2.48.07,3.76.07,3.83Z"/>
      <path class="cls-5" d="m743.44,181.45h-19.08c.02,1.86.41,3.58,1.19,5.13.77,1.56,1.96,2.85,3.56,3.87,1.02.65,2.18,1.14,3.48,1.47,1.3.33,2.87.49,4.7.49,1,0,1.92-.03,2.76-.08s1.35-.09,1.54-.11l-.48,3.51c-.14.02-.61.05-1.4.09s-1.72.07-2.8.07c-2.82,0-5.27-.36-7.35-1.1-2.09-.73-3.8-1.74-5.13-3.02-1.14-1.07-2.12-2.45-2.92-4.12-.8-1.67-1.2-3.53-1.2-5.57s.3-3.82.9-5.44c.6-1.62,1.5-3.12,2.69-4.51,1.04-1.2,2.33-2.12,3.87-2.77,1.54-.65,3.14-.98,4.79-.98s3.09.25,4.35.74c1.27.49,2.37,1.24,3.3,2.24,1.04,1.13,1.83,2.51,2.38,4.16.55,1.65.83,3.62.84,5.93Zm-4.09-2.96c-.28-2.18-1.03-3.89-2.23-5.13-1.21-1.24-2.79-1.86-4.76-1.86s-3.62.63-4.94,1.89-2.23,2.96-2.74,5.11h14.67Z"/>
    </g>
    <g>
      <path class="cls-4" d="m220.43,68.79c2.33.11,4.71.17,6.99-.41,2.22-.57,4.21-1.83,5.79-3.49,1.47-1.55,2.67-3.39,3.65-5.27,1.15-2.2,2.07-4.65,1.99-7.17-.15-4.67-3.47-8.43-7.03-11.1-3.24-2.43-7.09-3.89-11.1-4.36-4.01-.47-8.31.4-11.71,2.59-3.86,2.49-6.29,6.57-6.53,11.17-.22,4.12,1.69,8.3,4.94,10.84,3.42,2.69,7.92,3.64,12.1,2.21,4.17-1.42,8.59-5.39,7.16-10.24-.65-2.19-2.32-4.01-4.53-4.68-2.2-.67-4.57,0-6.32,1.42-.72.58-1.35,1.35-1.72,2.21-.27.63-.43,1.19-.25,1.87.16.56.59,1.17,1.12,1.45,1.04.55,2.79.38,3.33-.87.06-.15.13-.29.2-.43.05-.09.11-.18.16-.27.1-.18.15-.06,0,0-.13.05-.14.14.01,0,.06-.05.11-.11.16-.17.06-.06.12-.11.17-.16.3-.3-.3.16-.06.04.14-.07.27-.17.4-.25.01,0,.21-.11.21-.11.01.02-.47.16-.22.09.18-.05.35-.12.53-.17.07-.02.16-.02.23-.05.26-.1-.46,0-.18.02.18,0,.37-.02.55-.02.08,0,.16.02.23.02.26,0-.25,0-.26-.03,0,.01.42.11.46.12.38.09-.19-.02-.13-.07.02-.01.26.13.29.15.07.04.14.1.2.13.27.11-.22-.13-.17-.14.08-.01.37.34.41.38.02.01.17.16.16.18,0,.02-.28-.41-.13-.17.1.16.21.31.3.48,0,0,.16.27.14.29-.01.03-.16-.48-.09-.2.04.16.09.31.14.47,0,.02.05.24.05.24-.03,0-.03-.64-.03-.17,0,.18-.02.39,0,.56.03.27,0-.24.04-.25,0,0-.04.22-.05.24-.05.18-.18.57-.02.19-.08.19-.18.37-.29.54-.05.09-.12.17-.17.26-.15.3.34-.38-.05.08-.25.29-.52.58-.81.84-.09.08-.54.47-.31.28.23-.2,0,0-.04.03-.1.07-.2.14-.3.21-.33.22-.67.42-1.02.6-.16.08-.33.16-.49.24-.26.13.16-.07.16-.07,0,.03-.37.14-.43.16-.37.13-.75.24-1.14.33-.18.04-.36.08-.54.11-.09.02-.18.03-.27.04-.34.06.45-.03.1-.02-.4.02-.79.06-1.19.05-.18,0-.37,0-.55-.02-.12,0-.24-.02-.36-.03-.4-.03.07-.04.1.02-.05-.1-1.03-.22-1.16-.25-.17-.05-.34-.1-.51-.16-.08-.03-.17-.06-.25-.09-.32-.11,0-.05.09.05-.2-.22-.76-.36-1.03-.51-.36-.21-.69-.44-1.04-.67-.23-.15.13.11.14.11-.09-.05-.2-.17-.27-.23-.13-.12-.27-.23-.4-.35-.3-.28-.59-.58-.85-.9-.06-.07-.11-.14-.17-.2-.18-.21.12.13.11.14,0,0-.28-.4-.31-.43-.23-.34-.44-.7-.63-1.06-.1-.18-.18-.37-.27-.56-.12-.25.08.16.07.17.01-.02-.08-.22-.1-.25-.15-.39-.27-.79-.36-1.19-.04-.18-.08-.37-.12-.55,0-.03-.06-.27-.05-.28-.02.02.05.48.01.08-.03-.41-.06-.81-.05-1.22,0-.16-.05-1.13.08-1.22,0,0-.08.47-.02.18.03-.12.04-.25.07-.37.04-.22.09-.43.15-.65.1-.4.22-.79.37-1.17.02-.06.06-.22.1-.26,0,0-.19.4-.06.15.11-.23.21-.46.33-.68.18-.33.37-.66.58-.97.12-.17.24-.39.38-.54-.33.34.03-.02.16-.17.28-.32.59-.62.91-.91.15-.13.3-.26.46-.39-.38.32.17-.13.31-.22.72-.5,1.48-.9,2.27-1.27-.43.2.08-.03.25-.09.17-.06.34-.12.51-.18.4-.13.81-.25,1.22-.35.38-.09.76-.17,1.15-.24.09-.01.18-.03.27-.04.28-.05-.19.03-.2.03.18.05.53-.06.72-.07.78-.06,1.56-.07,2.34-.02.39.02.78.06,1.17.1.28.03-.19-.02-.2-.03.04.03.21.03.27.04.24.04.48.08.71.13.77.16,1.54.36,2.29.6.38.12.75.26,1.12.4.09.03.17.07.25.1.27.1-.15-.07-.16-.07.12-.03.55.25.67.3.72.34,1.42.73,2.09,1.15.34.21.67.43.99.66.17.12.37.23.52.38-.35-.33,0,0,.16.13.64.52,1.25,1.09,1.82,1.69.27.29.54.58.8.89.09.1.17.21.25.31-.02-.02-.23-.32-.08-.1.13.19.27.38.4.57.24.36.45.73.65,1.11.04.08.29.59.17.33-.13-.29.03.09.06.16.04.12.09.25.13.37.06.19.11.37.16.56.03.14.22.8.07.22.11.43.06.97.04,1.41,0,.07-.04.53,0,.21.03-.29,0,.07-.02.11-.04.21-.08.43-.13.64-.12.5-.27.99-.45,1.47-.05.13-.25.61-.09.24-.1.24-.21.47-.33.7-.22.46-.47.92-.72,1.37-.41.73-.85,1.45-1.34,2.14-.13.18-.26.37-.4.55.25-.34.03-.04-.1.11-.29.34-.59.68-.9.99-.18.18-.59.72-.85.76.23-.04.26-.19.04-.03-.08.05-.15.11-.23.16-.18.12-.37.24-.56.36-.19.11-.39.22-.59.31-.09.04-.17.08-.26.12.04-.02.34-.12.08-.04-.48.15-.94.31-1.43.42-.21.04-.42.08-.63.12-.28.06.08,0,.11-.01-.14.01-.29.03-.43.04-.5.04-1.01.07-1.51.07-.94.01-1.88-.03-2.82-.08-1.27-.06-2.49,1.16-2.43,2.43.06,1.37,1.07,2.36,2.43,2.43h0Z"/>
      <path class="cls-4" d="m293.39,61.85c-.95-.04-1.9-.08-2.85-.17-.1,0-.68-.08-.41-.04.27.04-.31-.05-.4-.07-.48-.09-.96-.19-1.42-.33-.23-.07-.46-.15-.69-.23-.44-.15.23.13-.19-.07-.42-.2-.82-.43-1.21-.69-.08-.05-.15-.11-.23-.16-.24-.16.11.09.12.09-.14-.04-.32-.27-.43-.37-.33-.3-.64-.62-.93-.95-.06-.07-.12-.14-.19-.22-.05-.06-.3-.38-.11-.13.18.23-.16-.22-.21-.29-.26-.37-.5-.75-.73-1.14-.43-.72-.81-1.47-1.16-2.23-.11-.23-.21-.46-.31-.69.16.37-.04-.11-.09-.24-.19-.48-.36-.97-.5-1.47-.13-.46-.24-.92-.33-1.39-.02-.11-.04-.21-.05-.32,0,.04.03.39.02.11,0-.25-.04-.5-.04-.76,0-.25.03-.51.03-.76,0-.27-.02.06-.03.11.01-.11.04-.22.06-.32.09-.45.23-.86.37-1.3.09-.28-.06.14-.06.14,0-.06.09-.2.12-.26.1-.2.2-.4.31-.59.21-.36.45-.7.69-1.04.2-.29-.26.3-.02.04.07-.07.12-.15.19-.22.13-.15.26-.29.39-.43.31-.33.63-.65.96-.95.3-.28.61-.54.93-.8.06-.05.14-.14.22-.17-.01,0-.35.26-.13.1.18-.12.35-.26.52-.38.68-.48,1.39-.91,2.13-1.31.35-.19.71-.37,1.08-.54.14-.06.36-.22.51-.23,0,0-.42.17-.15.07.14-.05.29-.11.43-.17.75-.28,1.51-.53,2.29-.72.39-.1.78-.18,1.17-.26.18-.03.36-.07.54-.1.03,0,.26-.02.27-.04-.05.09-.51.06-.01,0,.79-.09,1.58-.13,2.37-.12.39,0,.79.02,1.18.05.18.01.36.03.54.05.26.03.17.13-.11-.02.09.05.26.04.36.06.78.13,1.54.31,2.29.55.38.12.74.26,1.11.4.27.1-.16-.07-.16-.07.02-.01.22.1.25.11.23.11.47.22.7.34.38.2.76.42,1.12.66.17.11.33.22.5.34.08.06.16.12.24.18.29.2-.28-.25-.02-.01.32.29.66.56.97.87.14.14.28.29.41.43.1.11.57.69.25.27.5.66.9,1.37,1.25,2.11.13.27.13.05-.02-.06.04.03.08.22.1.27.06.18.13.36.18.54.13.42.24.85.32,1.28.02.09.1.66.06.33-.04-.33,0,0,0,.05.01.13.02.25.03.38.03.44.03.88,0,1.32,0,.19-.03.38-.04.56-.04.48.08-.37-.02.1-.08.43-.18.86-.31,1.28-.05.18-.11.35-.18.53-.02.06-.14.3-.13.33,0-.02.19-.42.07-.17-.19.37-.36.74-.58,1.09-.09.15-.19.3-.29.45-.05.07-.36.53-.17.26.17-.26-.18.21-.26.3-.14.16-.28.31-.42.46-.27.28-.55.54-.84.78-.07.06-.14.11-.21.17-.21.18.14-.12.14-.11,0,0-.54.38-.58.4-.3.19-.6.37-.92.53-.1.05-.64.32-.35.18.29-.14-.26.1-.37.14-.36.13-.73.23-1.1.32-.18.04-.35.07-.53.1-.27.06.17-.03.19-.02-.06-.03-.36.04-.45.04-.36.03-.73.04-1.09.02-.21,0-.43-.02-.64-.04-.06,0-.38-.03-.04,0,.35.03-.06-.01-.13-.02-.39-.07-.78-.16-1.16-.27-.18-.05-.35-.11-.52-.17-.12-.04-.23-.08-.34-.12-.37-.13.04.06.07.04-.1.07-.86-.43-.98-.49-.22-.13-.98-.46-1.07-.7,0,.02.43.37.06.04-.07-.06-.14-.12-.21-.18-.14-.12-.27-.25-.4-.37-.13-.13-.26-.26-.38-.4-.08-.09-.16-.19-.24-.28-.22-.23.2.31,0,.01-.11-.17-.23-.34-.34-.52-.07-.12-.36-.73-.17-.24-.07-.19-.14-.39-.19-.58-.02-.08-.03-.16-.05-.24-.07-.27-.02.44.03.17,0-.01,0-.56,0-.56.03,0-.11.51-.03.25.02-.08.03-.16.05-.24.04-.16.09-.31.14-.47.12-.41-.01.1-.06.13.06-.04.11-.22.15-.29.05-.09.26-.31.26-.41,0,.03-.31.34-.13.17.08-.07.14-.16.22-.24.06-.06.12-.11.17-.17.09-.09.13-.23,0-.02-.11.18-.13.08.01,0,.09-.06.18-.12.27-.17-.02.01.27-.16.29-.15.02.02-.48.16-.21.09.15-.04.32-.08.47-.13.26-.09-.24.06-.25.03,0,0,.35-.02.32-.02.11,0,.7.05.32,0-.39-.05.14.04.23.07.1.03.21.08.31.09.24.04-.17-.07-.2-.1.12.09.3.14.43.22.07.04.14.08.21.13.05.03.09.06.13.09.15.1.09.06-.17-.14.06-.01.31.28.36.33.05.06.1.13.16.18.22.18-.17-.17-.13-.18.06,0,.28.44.3.48.28.48-.1-.3.03.09.39,1.21,1.7,2.11,2.99,1.7,1.2-.39,2.12-1.7,1.7-2.99-.72-2.2-2.45-3.88-4.67-4.55-2.24-.68-4.64-.06-6.34,1.51-1.73,1.6-2.46,4.02-2.07,6.31.4,2.33,2.19,4.25,4,5.63,3.29,2.51,8.04,3.3,11.93,1.81,3.97-1.51,7.15-4.77,8.29-8.9,1.2-4.36.04-9.06-2.82-12.51-2.79-3.37-7.08-5.15-11.34-5.64-4.02-.47-8.13.45-11.76,2.16-1.84.86-3.52,2-5.07,3.31-1.6,1.36-3.1,3.02-3.97,4.95-1.08,2.37-1.24,4.84-.68,7.38.49,2.22,1.49,4.41,2.62,6.39,1.12,1.95,2.54,3.67,4.36,5,1.96,1.42,4.34,1.96,6.69,2.23,1.05.12,2.11.16,3.17.21,1.27.05,2.49-1.15,2.43-2.43-.06-1.36-1.07-2.38-2.43-2.43h0Z"/>
      <g>
        <line class="cls-4" x1="222.29" y1="78.11" x2="292.79" y2="77.33"/>
        <path class="cls-4" d="m222.27,75.92c5.87-.37,11.74-.7,17.62-1.01l17.62-.88,17.62-.87,17.62-.83c2.75-.13,5.09,2,5.22,4.75.13,2.75-2,5.09-4.75,5.22-.12,0-.24,0-.36,0l-17.63-.43-17.63-.47-17.63-.49c-5.88-.17-11.76-.38-17.63-.62-1.21-.05-2.15-1.07-2.1-2.28.05-1.13.95-2.02,2.05-2.1Z"/>
      </g>
      <g>
        <line class="cls-4" x1="234.98" y1="98.24" x2="280.1" y2="97.92"/>
        <path class="cls-4" d="m234.97,96.05l45.11-1.68c1.96-.07,3.6,1.45,3.68,3.41s-1.45,3.6-3.41,3.68c-.07,0-.15,0-.21,0l-45.13-1.03c-1.21-.03-2.17-1.03-2.14-2.24.03-1.16.96-2.09,2.11-2.14Z"/>
      </g>
      <g>
        <line class="cls-4" x1="220.65" y1="116.76" x2="294.43" y2="116.48"/>
        <path class="cls-4" d="m220.64,114.57c3.07-.71,6.14-1.03,9.22-1.26,3.07-.22,6.15-.27,9.22-.24h9.22c3.07,0,6.15.06,9.22.09,3.07.02,6.15.08,9.22.14l4.61.09,4.61.13c6.15.17,12.3.41,18.45.77,1.21.07,2.13,1.11,2.06,2.32-.07,1.11-.95,1.98-2.04,2.06-6.15.41-12.29.69-18.44.91l-4.61.17-4.61.13c-3.07.09-6.15.17-9.22.21-3.07.05-6.15.13-9.22.15l-9.22.08c-3.07.05-6.15.02-9.22-.17-3.08-.21-6.15-.51-9.23-1.2-1.21-.27-1.97-1.47-1.7-2.68.19-.87.87-1.51,1.69-1.7Z"/>
      </g>
      <path class="cls-4" d="m259.73,75.96c.14,1.36.25,2.71.38,4.07l.31,4.07c.2,2.71.37,5.43.52,8.14.3,5.43.54,10.85.7,16.28.18,5.43.29,10.85.36,16.28.03,2.71.07,5.43.07,8.14v4.07c.04.68-.07,1.36-.43,2.04-.17.34-.4.68-.7,1.02-.34.34-.65.68-1.21,1.02-1.39.85-3.08.79-4.37,0-.56-.34-.88-.68-1.21-1.02-.31-.34-.54-.68-.7-1.02-.36-.68-.47-1.36-.45-2.04v-4.07c.02-2.71.05-5.43.08-8.14.07-5.43.18-10.85.36-16.28.17-5.43.4-10.85.7-16.28.15-2.71.32-5.43.52-8.14l.31-4.07c.12-1.36.23-2.71.38-4.07.13-1.21,1.21-2.08,2.42-1.95,1.05.11,1.85.95,1.95,1.95Z"/>
    </g>
  </g>
  <g>
    <path class="cls-5" d="m346.22,111.79c-1.07,7.72-5.56,11.65-13.49,11.81-7.56-.32-11.71-3.78-12.45-10.38.16-3.14,1.04-5.85,2.63-8.14,1.49-2.34,2.87-3.91,4.15-4.71.64-.43,1.41-.61,2.32-.56.9.21,1.28.85,1.12,1.92-.16.69-.61,1.28-1.36,1.76-.75.43-1.65,1.44-2.71,3.03-1.07,1.65-1.68,3.67-1.84,6.07.16,3.78,2.69,5.93,7.58,6.47,5.85.21,9.15-2.42,9.9-7.9-.11-2.71-1.01-4.82-2.71-6.31-1.7-1.49-3.73-2.5-6.07-3.03-.59-.16-.91-.59-.96-1.28.16-.96.98-1.46,2.47-1.52,2.98,0,5.69,1.22,8.14,3.67,2.45,2.5,3.54,5.53,3.27,9.1Zm27.86,2.79c-.37.11-.99.05-1.84-.16-.91-.21-2.02-.37-3.35-.48h-.64c.05,1.81.08,3.81.08,5.99v1.92c2.98-.16,5.69-.24,8.14-.24h4.15c1.97.27,2.87,1.36,2.71,3.27-.37,1.33-1.2,2.05-2.47,2.15-1.01-.27-2.39-.48-4.15-.64-1.81-.27-3.7-.35-5.67-.24-.96,0-1.86.03-2.71.08.11,5.96.51,10.88,1.2,14.77,0,1.6-.56,2.61-1.68,3.03-2.13.05-3.25-.99-3.35-3.11.11-3.99.08-8.86-.08-14.61-3.46.16-6.31.32-8.54.48-3.46.27-6.31.45-8.54.56-1.6-.27-2.32-1.04-2.16-2.32-.21-.96.43-1.6,1.92-1.92,6.39-.48,12.13-.85,17.24-1.12-.05-1.06-.08-2.08-.08-3.03v-4.87c-.96.05-1.78.08-2.47.08-1.76.16-3.11.27-4.07.32-1.65-.16-2.53-.74-2.63-1.76-.11-1.01.35-1.65,1.36-1.92,1.28-.32,3.88-.59,7.82-.8v-.48c-.05-2.93-.08-4.74-.08-5.43.32-1.12,1.01-1.68,2.08-1.68.8-.05,1.41.53,1.84,1.76,0,.64.03,2.02.08,4.15v1.44c2.39-.11,4.2-.16,5.43-.16,1.86.11,2.82,1.04,2.87,2.79-.21,1.23-1.01,1.94-2.39,2.16Zm3.67-18.68c.96,0,1.84.05,2.63.16.8.05,1.44.37,1.92.96.43.48.61,1.09.56,1.84-.16,1.28-.83,2.02-2,2.23-.64,0-1.6-.11-2.87-.32-1.23-.16-2.45-.27-3.67-.32-2.61,0-6.09.16-10.46.48-4.36.37-7.72.72-10.06,1.04-2.02,0-3.54-.16-4.55-.48-1.01-.32-1.54-.85-1.6-1.6-.27-.96.82-1.62,3.27-2,12.24-1.28,21.18-1.94,26.82-2Zm-19.48-12.53c1.06-.05,1.73.43,2,1.44.11.96.19,2.1.24,3.43.11,1.23.4,2.23.88,3.03.16.37.4.77.72,1.2.21.43.29.93.24,1.52-.21.96-.83,1.52-1.84,1.68-1.12.05-1.97-.43-2.55-1.44-.64-.96-1.06-2.16-1.28-3.59-.21-1.49-.4-2.85-.56-4.07,0-2.18.72-3.24,2.16-3.19Zm16.68-.56c1.06-.05,1.86.35,2.39,1.2.48.91.66,1.84.56,2.79-.11,1.6-.48,3.06-1.12,4.39-.64,1.33-1.44,2.47-2.39,3.43-.37.37-.91.64-1.6.8-.64,0-1.12-.19-1.44-.56-.16-.59,0-1.2.48-1.84.59-1.22.98-2.29,1.2-3.19.27-.9.45-1.89.56-2.95-.05-.64-.13-1.36-.24-2.15.11-1.22.64-1.86,1.6-1.92Z"/>
    <path class="cls-5" d="m427.95,111.79c-1.07,7.72-5.56,11.65-13.49,11.81-7.56-.32-11.71-3.78-12.45-10.38.16-3.14,1.04-5.85,2.63-8.14,1.49-2.34,2.87-3.91,4.15-4.71.64-.43,1.41-.61,2.32-.56.9.21,1.28.85,1.12,1.92-.16.69-.61,1.28-1.36,1.76-.75.43-1.65,1.44-2.71,3.03-1.07,1.65-1.68,3.67-1.84,6.07.16,3.78,2.69,5.93,7.58,6.47,5.85.21,9.15-2.42,9.9-7.9-.11-2.71-1.01-4.82-2.71-6.31-1.7-1.49-3.73-2.5-6.07-3.03-.59-.16-.91-.59-.96-1.28.16-.96.98-1.46,2.47-1.52,2.98,0,5.69,1.22,8.14,3.67,2.45,2.5,3.54,5.53,3.27,9.1Zm27.86,2.79c-.37.11-.99.05-1.84-.16-.91-.21-2.02-.37-3.35-.48h-.64c.05,1.81.08,3.81.08,5.99v1.92c2.98-.16,5.69-.24,8.14-.24h4.15c1.97.27,2.87,1.36,2.71,3.27-.37,1.33-1.2,2.05-2.47,2.15-1.01-.27-2.39-.48-4.15-.64-1.81-.27-3.7-.35-5.67-.24-.96,0-1.86.03-2.71.08.11,5.96.51,10.88,1.2,14.77,0,1.6-.56,2.61-1.68,3.03-2.13.05-3.25-.99-3.35-3.11.11-3.99.08-8.86-.08-14.61-3.46.16-6.31.32-8.54.48-3.46.27-6.31.45-8.54.56-1.6-.27-2.32-1.04-2.16-2.32-.21-.96.43-1.6,1.92-1.92,6.39-.48,12.13-.85,17.24-1.12-.05-1.06-.08-2.08-.08-3.03v-4.87c-.96.05-1.78.08-2.47.08-1.76.16-3.11.27-4.07.32-1.65-.16-2.53-.74-2.63-1.76-.11-1.01.35-1.65,1.36-1.92,1.28-.32,3.88-.59,7.82-.8v-.48c-.05-2.93-.08-4.74-.08-5.43.32-1.12,1.01-1.68,2.08-1.68.8-.05,1.41.53,1.84,1.76,0,.64.03,2.02.08,4.15v1.44c2.39-.11,4.2-.16,5.43-.16,1.86.11,2.82,1.04,2.87,2.79-.21,1.23-1.01,1.94-2.39,2.16Zm3.67-18.68c.96,0,1.84.05,2.63.16.8.05,1.44.37,1.92.96.43.48.61,1.09.56,1.84-.16,1.28-.83,2.02-2,2.23-.64,0-1.6-.11-2.87-.32-1.23-.16-2.45-.27-3.67-.32-2.61,0-6.09.16-10.46.48-4.36.37-7.72.72-10.06,1.04-2.02,0-3.54-.16-4.55-.48-1.01-.32-1.54-.85-1.6-1.6-.27-.96.82-1.62,3.27-2,12.24-1.28,21.18-1.94,26.82-2Zm-19.48-12.53c1.06-.05,1.73.43,2,1.44.11.96.19,2.1.24,3.43.11,1.23.4,2.23.88,3.03.16.37.4.77.72,1.2.21.43.29.93.24,1.52-.21.96-.83,1.52-1.84,1.68-1.12.05-1.97-.43-2.55-1.44-.64-.96-1.06-2.16-1.28-3.59-.21-1.49-.4-2.85-.56-4.07,0-2.18.72-3.24,2.16-3.19Zm16.68-.56c1.06-.05,1.86.35,2.39,1.2.48.91.66,1.84.56,2.79-.11,1.6-.48,3.06-1.12,4.39-.64,1.33-1.44,2.47-2.39,3.43-.37.37-.91.64-1.6.8-.64,0-1.12-.19-1.44-.56-.16-.59,0-1.2.48-1.84.59-1.22.98-2.29,1.2-3.19.27-.9.45-1.89.56-2.95-.05-.64-.13-1.36-.24-2.15.11-1.22.64-1.86,1.6-1.92Z"/>
    <path class="cls-5" d="m516.15,80.42c.8-.05,2.08.43,3.83,1.44,1.76.96,4.87,2.55,9.34,4.79,4.47,2.23,8.3,3.99,11.49,5.27,3.09.8,4.58,2,4.47,3.59-.21,1.49-1.01,2.34-2.39,2.55-1.12-.11-2.23-.56-3.35-1.36-5.06-2.87-9.45-5.16-13.17-6.86-3.78-1.7-6.23-2.77-7.34-3.19-1.17-.48-2.13-.66-2.87-.56-.53-.05-1.54.37-3.03,1.28-1.54.91-4.31,2.58-8.3,5.03-3.94,2.45-7.48,4.84-10.62,7.18-1.44,1.28-2.61,1.84-3.51,1.68-1.22-.11-1.86-.8-1.92-2.08-.16-.74.35-1.46,1.52-2.16,6.76-4.63,12.32-8.25,16.68-10.86,4.26-2.61,6.65-4.18,7.18-4.71.53-.48,1.2-.82,2-1.04Zm1.04,60.98c-1.54-1.92-2.34-3.94-2.39-6.07.11-4.74,2.69-7.24,7.74-7.5,2.45.05,4.39.77,5.83,2.16,1.44,1.33,2.16,3.09,2.16,5.27-.32,2.61-1.89,4.87-4.71,6.78.8.37,1.57.61,2.31.72,1.92.43,3.94.66,6.07.72,1.54,0,2.69-.11,3.43-.32,1.33.16,2,.98,2,2.47.05,1.65-.8,2.55-2.55,2.71-7.02.11-12.4-1.12-16.12-3.67-2.93,1.22-6.01,1.92-9.26,2.08-4.52-.11-8.2-1.23-11.02-3.35-2.82-2.08-4.34-5.29-4.55-9.66-.11-2.98.24-6.6,1.04-10.86.64-4.1,1.54-7.37,2.71-9.82.85-.96,1.73-1.28,2.63-.96.8.59,1.06,1.25.8,2-1.17,3.3-1.92,6.68-2.23,10.14-.48,3.73-.72,6.84-.72,9.34.27,2.93,1.52,5.13,3.75,6.62,2.39,1.49,4.95,2.23,7.66,2.23,1.6-.05,3.4-.4,5.43-1.04Zm2-40.31c3.62.21,6.63,1.01,9.02,2.39,2.34,1.33,3.54,3.43,3.59,6.31.11,2.13-.03,4.15-.4,6.07-.37,1.81-.85,3.22-1.44,4.23-.59,1.06-1.49,1.44-2.71,1.12-.96-.21-1.38-.9-1.28-2.08,1.33-4.2,1.73-7.21,1.2-9.02-.43-1.7-1.52-2.9-3.27-3.59-1.86-.69-3.7-1.04-5.51-1.04-2.02-.11-4.52.05-7.5.48-2.93.32-4.95.48-6.07.48-1.38.05-2.15-.4-2.31-1.36.11-1.12,1.04-1.89,2.79-2.31,1.97-.69,4.36-1.14,7.18-1.36,2.77-.21,5-.32,6.7-.32Zm3.11,18.84c1.28.16,2,.96,2.15,2.39-.27,1.17-1.04,1.81-2.31,1.92-2.34,0-4.92.05-7.74.16-2.87.05-5.3.19-7.26.4-1.65.05-2.53-.48-2.63-1.6.05-.8.48-1.36,1.28-1.68,1.54-.48,4.07-.85,7.58-1.12,3.46-.32,6.44-.48,8.94-.48Zm-12.93-8.62c.85,0,2.61-.08,5.27-.24,2.71-.21,4.34-.32,4.87-.32,1.81-.11,2.79.61,2.95,2.16-.11,1.17-.88,1.89-2.31,2.16h-.4c-.16,0-.45.03-.88.08-.43,0-3.67.05-9.74.16-1.6-.27-2.34-.98-2.23-2.16.16-1.12.98-1.73,2.47-1.84Zm4.55-20.91c.9.11,2.26.91,4.07,2.39,1.86,1.54,2.87,2.79,3.03,3.75.05,1.22-.51,2.05-1.68,2.47-1.28.21-2.29-.21-3.03-1.28-.69-.96-1.76-2.1-3.19-3.43-.75-.53-1.12-1.25-1.12-2.16.16-1.06.8-1.65,1.92-1.76Zm11.73,45.1c0-2.08-1.04-3.22-3.11-3.43-2.29.32-3.46,1.38-3.51,3.19-.11,1.6.74,3.09,2.55,4.47,2.34-1.28,3.7-2.69,4.07-4.23Z"/>
    <path class="cls-5" d="m595.57,127.6c-1.44,8.46-7.32,12.77-17.64,12.93-8.62-.37-13.36-4.23-14.21-11.57.16-3.19,1.04-5.93,2.63-8.22,1.54-2.29,2.98-3.83,4.31-4.63.53-.32,1.14-.45,1.84-.4.74.16,1.04.67.88,1.52-.16.69-.59,1.28-1.28,1.76-.69.48-1.54,1.49-2.55,3.03-.96,1.76-1.52,3.86-1.68,6.31.21,4.15,3.35,6.52,9.42,7.1,8.19.27,12.82-2.58,13.89-8.54-.16-2.77-1.49-4.92-3.99-6.47-2.45-1.54-5.4-2.58-8.86-3.11-.64-.21-.99-.66-1.04-1.36.16-1.01,1.04-1.54,2.63-1.6,3.99,0,7.71,1.28,11.17,3.83,3.35,2.55,4.84,5.69,4.47,9.42Zm-7.98-21.63c-1.17-.05-3.25,0-6.23.16-.53,0-.99.03-1.36.08v1.04c-.05.53-.03,1.12.08,1.76.16.69.21,1.25.16,1.68-.05,1.6-.83,2.47-2.31,2.63-1.38-.16-2.18-.9-2.39-2.23.11-.8.16-1.49.16-2.08,0-.53.05-1.01.16-1.44v-1.12c-1.12.05-2.21.13-3.27.24-2.82.21-5,.37-6.55.48-1.28,0-2-.53-2.16-1.6.05-1.01.43-1.65,1.12-1.92,3.14-.58,6.79-1.14,10.94-1.68v-5.43c.05-1.33.59-2.05,1.6-2.16,1.44-.11,2.21.96,2.31,3.19.05,1.38.08,2.63.08,3.75,4.1-.43,6.55-.64,7.34-.64,2.23.11,3.3,1.17,3.19,3.19-.16,1.17-1.12,1.86-2.87,2.08Zm-5.75-21.95c1.49.21,2.34,1.04,2.55,2.47.05.91-.27,1.49-.96,1.76-.96.32-2,.69-3.11,1.12-1.07.43-2.37,1.04-3.91,1.84-1.54.75-2.79,1.41-3.75,2-.32.48-.85.8-1.6.96-1.38-.16-2.08-.96-2.08-2.39.11-.69.88-1.41,2.31-2.16,1.38-.8,2.98-1.76,4.79-2.87,1.81-1.06,3.06-1.76,3.75-2.08.64-.43,1.3-.64,2-.64Zm35.36,50.21c-5.16.05-8.99-.93-11.49-2.95-2.61-2.02-3.91-5.4-3.91-10.14.11-3.62.4-8.22.88-13.81-2.23.21-4.04.37-5.43.48-1.49,0-2.34-.64-2.55-1.92.05-1.17.48-1.92,1.28-2.23,2.23-.32,4.63-.61,7.18-.88.27-2.45.53-4.95.8-7.5.37-1.49,1.12-2.13,2.23-1.92,1.44.11,1.97.99,1.6,2.63-.16,1.86-.37,3.99-.64,6.39,3.03-.32,6.28-.64,9.74-.96,2.13-.21,3.99-.37,5.59-.48-.37-1.49-.72-2.58-1.04-3.27-.64-1.38-.99-2.85-1.04-4.39,0-1.17.58-1.81,1.76-1.92,1.17,0,1.97.72,2.39,2.16.74,2.55,1.41,4.92,2,7.1,2.61-.21,4.28-.32,5.03-.32,2.23.11,3.3,1.17,3.19,3.19-.16,1.17-1.12,1.86-2.87,2.08-.96-.05-2.34-.05-4.15,0,.96,4.52,1.46,8.35,1.52,11.49.21,5.96-.61,10.19-2.47,12.69-1.86,2.55-5.06,4.04-9.58,4.47Zm6.15-28.5c-.53.05-1.04.08-1.52.08-4.79.27-9.47.64-14.05,1.12-.43.05-.77.08-1.04.08-.05.53-.11.99-.16,1.36-.27,2.98-.45,5.69-.56,8.14,1.92.37,3.94.56,6.07.56,1.12,0,2.23-.05,3.35-.16,1.06-.21,1.92-.37,2.55-.48,1.17,0,1.86.64,2.08,1.92-.11.75-.4,1.28-.88,1.6-.64.37-1.44.67-2.39.88-1.01.21-2.37.32-4.07.32-1.07.05-2.21.03-3.43-.08-1.12-.11-2.13-.27-3.03-.48-.16-.05-.27-.08-.32-.08v.96c.27,2.98,1.12,5.14,2.55,6.47,1.49,1.44,3.86,2.05,7.1,1.84,3.35,0,5.67-.85,6.94-2.55,1.22-1.65,1.86-5.27,1.92-10.86-.16-3.4-.53-6.94-1.12-10.62Z"/>
    <path class="cls-5" d="m649.77,97.19c1.49,0,2.23.77,2.23,2.31.11,7.77.03,15.46-.24,23.07-.27,7.61-.77,12.82-1.52,15.64-.21.85-.61,1.44-1.2,1.76-.59.27-1.23.35-1.92.24-1.22-.21-1.84-.83-1.84-1.84.11-.74.37-1.49.8-2.23.64-2.18,1.12-7.08,1.44-14.69.27-7.61.4-14.87.4-21.79-.05-1.44.56-2.26,1.84-2.47Zm19,2.31c2.29-.11,4.44.51,6.47,1.84,2.08,1.38,3.19,3.14,3.35,5.27-.27,2.39-.75,4.23-1.44,5.51-.59.75-1.44,1.14-2.55,1.2-1.7-.37-2.37-1.25-2-2.63.8-1.81,1.06-3.03.8-3.67-.16-.8-.85-1.52-2.08-2.16-1.28-.58-2.74-.82-4.39-.72-1.54,0-3.09.08-4.63.24-1.49.16-2.79.35-3.91.56-1.12.16-1.86.32-2.23.48-1.81-.05-2.79-.56-2.95-1.52-.27-1.44.88-2.42,3.43-2.95,1.86-.43,3.83-.77,5.91-1.04,2.08-.21,4.15-.35,6.23-.4Zm.08-12.21c3.72-.11,5.56.91,5.51,3.03-.16,1.65-1.17,2.47-3.03,2.47-.59.05-1.3.03-2.16-.08-.85-.16-2.45-.32-4.79-.48-1.54.11-3.06.29-4.55.56-1.44.21-2.5.37-3.19.48-1.6-.16-2.53-.8-2.79-1.92.11-1.33.64-2.08,1.6-2.23.85-.48,2.79-.9,5.83-1.28,3.03-.37,5.56-.56,7.58-.56Zm2.32,31.61c-.8-.05-2.16-.03-4.07.08-1.92.16-3.78.35-5.59.56-1.81.21-3.19.35-4.15.4-1.33,0-2.1-.58-2.31-1.76.05-1.06.45-1.73,1.2-2,2.34-.48,5.19-.96,8.54-1.44,3.35-.48,5.35-.72,5.99-.72,2.08.11,3.06,1.09,2.95,2.95-.16,1.06-1.01,1.7-2.55,1.92Zm16.52-15.17c-.05.37-.19,1.23-.4,2.55-.21,1.28-.4,3.62-.56,7.02-.05,4.68.19,8.38.72,11.09,0,1.6-.56,2.61-1.68,3.03-2.08.05-3.17-.98-3.27-3.11-.05-2.98.03-6.97.24-11.97.05-1.97.16-3.83.32-5.59.21-1.7.4-2.77.56-3.19.32-1.17,1.06-1.76,2.23-1.76.85-.05,1.46.59,1.84,1.92Zm17.96-16.84c1.7.16,2.66.93,2.87,2.32.11,1.81-.72,2.87-2.47,3.19-1.44.05-3.11.29-5.03.72-1.86.43-3.94,1.01-6.23,1.76-2.23.8-3.81,1.41-4.71,1.84-1.86.27-2.87-.35-3.03-1.84-.11-.9.5-1.7,1.84-2.39,1.54-.8,3.38-1.62,5.51-2.47,2.13-.85,4.31-1.6,6.55-2.23,2.23-.58,3.8-.88,4.71-.88Zm3.19,17.16c2.82.05,4.28,1.12,4.39,3.19-.05,1.49-.99,2.37-2.79,2.63-.53.05-1.06,0-1.6-.16-.53-.21-1.62-.43-3.27-.64-2.5.11-5.06.37-7.66.8-2.66.48-4.39.67-5.19.56-1.44-.05-2.26-.61-2.47-1.68,0-.96.48-1.65,1.44-2.08.96-.53,3.4-1.12,7.34-1.76,3.99-.59,7.26-.88,9.82-.88Zm-3.83,11.65c.59,13.68.8,22.24.64,25.7-.27,1.49-1.17,2.29-2.71,2.39-1.6-.21-2.34-1.41-2.23-3.59.05-11.33.16-19.45.32-24.34,0-1.6.61-2.53,1.84-2.79,1.06,0,1.78.88,2.16,2.63Z"/>
  </g>
  <g>
    <g>
      <path class="cls-1" d="m27.83,78.85s3.52-21.98,23.14-14.93c0,0,7.04-13.95,18.61-2.2,0,0,4.02-9.87,12.07-2.33,0,0,9.05-12.44,21.63,2.33,0,0,11.06-1.85,12.57,4.95,0,0,12.07-3.85,15.59,11.29,0,0,8.55,4.12,6.04,9.88,0,0,9.98,12.8.46,23.36,0,0,7.68,9.05,4.11,15.09,0,0,13.03,9.76,5.99,22.74,0,0,9.71,8.95,2.09,21.02,0,0,1.94,16.6-9.63,18.11,0,0-2.51,13.08-18.61,14.08,0,0-13.58,13.58-20.62,9.05,0,0-7.54,8.89-24.14.92,0,0-10.06,7.12-32.19-2.43,0,0-9.56,1.39-10.06-4.84,0,0-11.57,2.32-17.1-9.25,0,0-10.06,0-11.57-14.59,0,0-9.05-9.56-3.02-22.63,0,0-3.52-15.11,4.53-24.15,0,0-6.54-19.08,5.53-28.64,0,0-3.02-10.05,7.54-14.59,0,0-.5-10.88,7.04-12.23Z"/>
      <path class="cls-6" d="m89.97,216.64c-3.95,0-8.25-1.06-12.79-3.17-1.36.75-5.06,2.4-11.31,2.4-6.32,0-13.42-1.67-21.11-4.96-.4.04-1.13.1-2.02.1-4.83,0-7.97-1.75-8.8-4.84-.41.04-.92.06-1.51.06-3.97,0-11.16-1.25-15.4-9.5-2.48-.34-10.46-2.42-11.92-15.18-1.49-1.77-8.5-11.1-3.12-23.23-.5-2.46-2.76-15.6,4.44-24.28-1.04-3.44-5.2-19.65,5.55-28.82-.47-2.51-1.22-10.65,7.66-14.88.04-2.59.68-10.7,7.22-12.45.75-3.35,4.5-16.51,16.86-16.51,2.1,0,4.35.39,6.72,1.15,1.23-1.98,4.69-6.67,10.1-6.67,2.87,0,5.79,1.34,8.72,3.98,1.05-1.74,3.22-4.44,6.63-4.44,1.82,0,3.71.79,5.63,2.36,1.44-1.54,4.76-4.42,9.45-4.42,4.29,0,8.57,2.41,12.75,7.16.61-.07,1.59-.16,2.76-.16,5.3,0,8.85,1.76,10.13,4.97.64-.12,1.53-.23,2.55-.23,3.84,0,10.6,1.59,13.24,12.09,1.86,1.01,8.19,4.93,6.33,10.48,1.75,2.56,8.59,13.83.65,23.55,1.75,2.29,6.45,9.24,4.06,14.77,2.7,2.38,11.58,11.39,5.95,22.83,2.08,2.33,8.39,10.78,1.88,21.48.6,6.06-.76,17.08-9.89,18.84-.88,2.93-4.93,13.11-19.02,14.18-1.79,1.73-10.74,10.01-17.75,10.01-1.16,0-2.22-.22-3.16-.66-1.43,1.29-5.17,3.97-11.49,3.97Zm-12.96-5.75l.6.28c4.43,2.13,8.59,3.2,12.36,3.2,7.02,0,10.3-3.69,10.43-3.84l.64-.74.83.53c.78.5,1.68.74,2.75.74,6.74,0,16.37-9.55,16.46-9.65l.3-.3.43-.03c14.98-.94,17.47-12.67,17.57-13.17l.16-.8.81-.11c10.34-1.35,8.67-16.7,8.65-16.85l-.05-.4.21-.34c7.04-11.15-1.53-19.24-1.9-19.58l-.65-.6.42-.78c6.5-11.97-5.17-20.91-5.67-21.29l-.81-.61.52-.87c3.11-5.27-3.93-13.7-4-13.78l-.64-.75.66-.73c8.76-9.72-.13-21.42-.52-21.91l-.41-.53.27-.62c2.06-4.7-5.41-8.37-5.49-8.4l-.49-.24-.12-.53c-2.09-8.97-7.22-10.85-11.16-10.85-1.73,0-2.97.38-2.98.38l-1.18.37-.27-1.2c-.79-3.55-4.92-4.3-8.25-4.3-1.72,0-3.02.21-3.03.21l-.63.1-.42-.49c-3.86-4.53-7.71-6.83-11.44-6.83-5.13,0-8.38,4.39-8.41,4.43l-.75,1.04-.93-.88c-1.79-1.68-3.47-2.53-4.98-2.53-3.41,0-5.25,4.42-5.27,4.46l-.65,1.59-1.21-1.23c-2.85-2.9-5.62-4.37-8.22-4.37-5.34,0-8.54,6.22-8.57,6.29l-.45.89-.94-.34c-2.45-.88-4.75-1.32-6.86-1.32-12.17,0-14.76,15.22-14.78,15.37l-.13.79-.79.14c-6.47,1.16-6.11,10.97-6.11,11.07l.03.78-.72.31c-9.52,4.09-7.02,12.85-6.91,13.22l.22.74-.6.48c-11.29,8.95-5.23,27.21-5.16,27.39l.21.63-.44.49c-7.57,8.51-4.3,23-4.27,23.14l.09.38-.16.35c-5.65,12.24,2.73,21.29,2.81,21.38l.26.28.04.38c1.39,13.41,10.35,13.57,10.44,13.57h.71l.31.64c3.66,7.65,10.12,8.79,13.64,8.79,1.34,0,2.21-.17,2.21-.17l1.24-.24.1,1.26c.26,3.25,3.81,3.93,6.75,3.93,1.17,0,2.02-.12,2.02-.12l.32-.05.29.13c7.52,3.25,14.41,4.89,20.5,4.89,7.12,0,10.56-2.32,10.59-2.35l.54-.37Z"/>
    </g>
    <g>
      <path class="cls-1" d="m47.84,75.44S10.63,19.12,25.21,2.52c14.59-16.6,36.21,68.64,36.21,68.64l-13.58,4.28Z"/>
      <path class="cls-2" d="m47.69,75.88l-.16-.24c-1.53-2.31-37.21-56.75-22.6-73.37,1.32-1.51,2.77-2.27,4.31-2.27,14.35,0,31.81,68.16,32.55,71.07l.09.35-14.19,4.47ZM29.24.75c-1.31,0-2.57.68-3.75,2.02-13.75,15.65,19.91,68.21,22.51,72.22l12.96-4.08C59.58,65.55,42.51.75,29.24.75Z"/>
    </g>
    <g>
      <path class="cls-1" d="m102.15,75.47S139.36,19.15,124.78,2.55c-14.59-16.6-36.21,68.64-36.21,68.64l13.58,4.28Z"/>
      <path class="cls-2" d="m102.3,75.91l-14.19-4.47.09-.35C88.94,68.2,106.4.03,120.75.03c1.54,0,2.99.76,4.31,2.27,14.61,16.62-21.08,71.06-22.6,73.37l-.16.24Zm-13.28-4.97l12.97,4.08c2.6-4.01,36.26-56.57,22.51-72.22-1.18-1.34-2.44-2.02-3.74-2.02-13.27,0-30.34,64.8-31.73,70.15Z"/>
    </g>
    <g>
      <path class="cls-1" d="m41.22,77.95s5.72-7.02,11.75-2.48c0,0,3.02-10.8,12.57-3.38"/>
      <path class="cls-6" d="m41.81,78.43l-1.17-.95c2.02-2.48,6.99-6.13,11.95-3.17.61-1.51,2.1-4.33,4.93-5.26,2.48-.82,5.33,0,8.49,2.46l-.93,1.19c-2.73-2.12-5.11-2.86-7.08-2.22-3.08,1.01-4.29,5.16-4.3,5.2l-.3,1.06-.88-.66c-5.39-4.06-10.5,2.09-10.71,2.36Z"/>
    </g>
    <g>
      <path class="cls-3" d="m83.65,73.81s7.97-4.29,11.81,2.22c0,0,6.93-8.81,12.91,1.7"/>
      <path class="cls-6" d="m108.45,78.69c-1.71-3-3.62-4.61-5.69-4.77-3.23-.24-5.94,3.12-5.97,3.16l-.68.86-.56-.95c-3.42-5.81-10.5-2.1-10.8-1.94l-.71-1.33c2.82-1.52,8.81-2.98,12.25,1.66,1.14-1.16,3.6-3.18,6.58-2.97,2.6.19,4.92,2.05,6.9,5.52l-1.31.74Z"/>
    </g>
    <path class="cls-2" d="m51.28,97.66s-3.98,43.19,28.47,42.93c32.45-.25,28.47-43.95,28.47-43.95l-56.94,1.02"/>
    <path class="cls-5" d="m69.42,113.77c4.35,0,4.36-6.76,0-6.76s-4.36,6.76,0,6.76"/>
    <path class="cls-5" d="m93.64,112.88c4.35,0,4.36-6.76,0-6.76s-4.36,6.76,0,6.76"/>
    <path class="cls-5" d="m80.8,126.63c-.1,0-.19-.03-.27-.09-.2-.15-.23-.43-.08-.63l4.43-5.78c.15-.2.43-.24.63-.08.2.15.23.43.08.63l-4.44,5.78c-.09.12-.22.18-.36.18"/>
    <path class="cls-5" d="m84.8,126.01c-.12,0-.24-.05-.32-.14l-5.45-5.61c-.17-.18-.17-.46,0-.64.18-.17.46-.17.64,0l5.45,5.61c.17.18.17.46,0,.64-.09.09-.2.13-.31.13"/>
    <g>
      <g>
        <path class="cls-1" d="m47.5,97.01s10.93,13.4,21.41-1.88c0,0,8.85,12.26,15.88,0,0,0,6.66,11.9,17.41.85,0,0-.19,8.97,8.11,0"/>
        <path class="cls-5" d="m57.86,102.6c-5.94,0-10.45-5.44-10.49-5.49l.25-.2c.05.06,4.46,5.38,10.24,5.38.13,0,.26,0,.39,0,3.79-.16,7.33-2.59,10.51-7.24l.13-.19.13.18c.04.06,4.1,5.62,8.82,5.37,2.55-.13,4.83-1.94,6.8-5.36l.14-.25.14.25s2.74,4.79,7.37,5.4c3.14.41,6.43-1.13,9.79-4.58l.28-.29v.41s-.05,3.07,1.52,3.7c1.32.53,3.5-.79,6.31-3.82l.24.22c-2.94,3.18-5.18,4.49-6.66,3.9-1.43-.58-1.68-2.73-1.72-3.62-3.34,3.34-6.63,4.82-9.79,4.4-4.18-.55-6.84-4.34-7.46-5.33-1.99,3.37-4.32,5.15-6.93,5.29-2.55.13-4.89-1.37-6.41-2.66-1.29-1.1-2.22-2.23-2.55-2.66-3.21,4.61-6.79,7.03-10.64,7.19-.14,0-.27,0-.4,0Z"/>
      </g>
      <path class="cls-6" d="m57.85,103.58c-6.38,0-11.04-5.61-11.23-5.85l1.75-1.43c.04.05,4.36,5.23,9.85,5.01,3.47-.15,6.75-2.44,9.74-6.81l.91-1.32.94,1.3c.04.05,3.82,5.21,7.98,4.97,2.19-.12,4.21-1.76,6-4.87l.99-1.73.98,1.74s2.52,4.38,6.66,4.92c2.81.37,5.82-1.08,8.95-4.3l2-2.06-.06,2.87c-.02,1,.29,2.53.92,2.78.23.09,1.58.36,5.23-3.58l1.66,1.54c-3.34,3.61-5.8,4.92-7.74,4.14-1.14-.46-1.73-1.54-2.03-2.58-3.12,2.67-6.22,3.82-9.25,3.42-3.52-.46-6-2.92-7.29-4.55-2,2.87-4.32,4.38-6.92,4.52-3.96.2-7.35-2.93-8.95-4.72-3.21,4.21-6.78,6.42-10.65,6.58-.15,0-.3,0-.45,0Z"/>
    </g>
    <path class="cls-2" d="m131.81,126.63s25.1-9.3,21.23,0c-3.87,9.3-16.7,7.68-16.7,7.68"/>
    <g>
      <path class="cls-1" d="m128.17,122.87s5.34,2.44,4.91,7.7c0,0,6.41-.3,5.62,8.08"/>
      <path class="cls-6" d="m139.46,138.72l-1.5-.14c.25-2.64-.23-4.6-1.4-5.84-1.42-1.49-3.41-1.41-3.44-1.42l-.86.04.07-.85c.38-4.68-4.43-6.93-4.48-6.96l.63-1.37c.23.1,5.31,2.49,5.38,7.68.94.12,2.52.51,3.79,1.84,1.49,1.56,2.1,3.93,1.81,7.02Z"/>
    </g>
  </g>
</svg>